<mxfile host="app.diagrams.net" modified="2024-04-02T23:52:27.961Z" agent="Mozilla/5.0 (Macintosh; Intel Mac OS X 10_15_7) AppleWebKit/537.36 (KHTML, like Gecko) Chrome/122.0.0.0 Safari/537.36" version="24.2.1" etag="ReSndqH213dPsdEAIwgV" type="github">
  <diagram name="PÃ¡gina-1" id="mG6g5q4gt7cv495VgCbx">
    <mxGraphModel>
      <root>
        <mxCell id="0" />
        <mxCell id="1" parent="0" />
      </root>
    </mxGraphModel>
  </diagram>
</mxfile>
